<svg xmlns="http://www.w3.org/2000/svg" version="1.1" xmlns:xlink="http://www.w3.org/1999/xlink" xmlns:svgjs="http://svgjs.com/svgjs" width="1440" height="560" preserveAspectRatio="none" viewBox="0 0 1440 560"><g mask="url(&quot;#SvgjsMask1000&quot;)" fill="none"><rect width="1440" height="560" x="0" y="0" fill="#0e2a47"/><path d="M7.86 152.69L72.81 190.19L72.81 265.19L7.86 302.69L-57.09 265.19L-57.09 190.19zM7.86 377.69L72.81 415.19L72.81 490.19L7.86 527.69L-57.09 490.19L-57.09 415.19zM137.77 -72.31L202.72 -34.81L202.72 40.19L137.77 77.69L72.81 40.19L72.81 -34.81zM202.72 40.19L267.68 77.69L267.68 152.69L202.72 190.19L137.77 152.69L137.77 77.69zM137.77 152.69L202.72 190.19L202.72 265.19L137.77 302.69L72.81 265.19L72.81 190.19zM332.63 40.19L397.58 77.69L397.58 152.69L332.63 190.19L267.68 152.69L267.68 77.69zM332.63 265.19L397.58 302.69L397.58 377.69L332.63 415.19L267.68 377.69L267.68 302.69zM397.58 377.69L462.54 415.19L462.54 490.19L397.58 527.69L332.63 490.19L332.63 415.19zM527.49 152.69L592.44 190.19L592.44 265.19L527.49 302.69L462.54 265.19L462.54 190.19zM527.49 377.69L592.44 415.19L592.44 490.19L527.49 527.69L462.54 490.19L462.54 415.19zM722.35 40.19L787.31 77.69L787.31 152.69L722.35 190.19L657.4 152.69L657.4 77.69zM917.21 152.69L982.17 190.19L982.17 265.19L917.21 302.69L852.26 265.19L852.26 190.19zM1112.07 40.19L1177.03 77.69L1177.03 152.69L1112.07 190.19L1047.12 152.69L1047.12 77.69zM1047.12 152.69L1112.07 190.19L1112.07 265.19L1047.12 302.69L982.17 265.19L982.17 190.19zM1047.12 377.69L1112.07 415.19L1112.07 490.19L1047.12 527.69L982.17 490.19L982.17 415.19zM1241.98 40.19L1306.93 77.69L1306.93 152.69L1241.98 190.19L1177.03 152.69L1177.03 77.69zM1241.98 265.19L1306.93 302.69L1306.93 377.69L1241.98 415.19L1177.03 377.69L1177.03 302.69zM1241.98 490.19L1306.93 527.69L1306.93 602.69L1241.98 640.19L1177.03 602.69L1177.03 527.69zM1306.93 -72.31L1371.89 -34.81L1371.89 40.19L1306.93 77.69L1241.98 40.19L1241.98 -34.81zM1371.89 40.19L1436.84 77.69L1436.84 152.69L1371.89 190.19L1306.93 152.69L1306.93 77.69zM1501.8 490.19L1566.75 527.69L1566.75 602.69L1501.8 640.19L1436.84 602.69L1436.84 527.69z" stroke="#03305d" stroke-width="2"/><path d="M0.36 152.69 a7.5 7.5 0 1 0 15 0 a7.5 7.5 0 1 0 -15 0zM65.31 190.19 a7.5 7.5 0 1 0 15 0 a7.5 7.5 0 1 0 -15 0zM65.31 265.19 a7.5 7.5 0 1 0 15 0 a7.5 7.5 0 1 0 -15 0zM0.36 302.69 a7.5 7.5 0 1 0 15 0 a7.5 7.5 0 1 0 -15 0zM-64.59 265.19 a7.5 7.5 0 1 0 15 0 a7.5 7.5 0 1 0 -15 0zM-64.59 190.19 a7.5 7.5 0 1 0 15 0 a7.5 7.5 0 1 0 -15 0zM0.36 377.69 a7.5 7.5 0 1 0 15 0 a7.5 7.5 0 1 0 -15 0zM65.31 415.19 a7.5 7.5 0 1 0 15 0 a7.5 7.5 0 1 0 -15 0zM65.31 490.19 a7.5 7.5 0 1 0 15 0 a7.5 7.5 0 1 0 -15 0zM0.36 527.69 a7.5 7.5 0 1 0 15 0 a7.5 7.5 0 1 0 -15 0zM-64.59 490.19 a7.5 7.5 0 1 0 15 0 a7.5 7.5 0 1 0 -15 0zM-64.59 415.19 a7.5 7.5 0 1 0 15 0 a7.5 7.5 0 1 0 -15 0zM130.27 -72.31 a7.5 7.5 0 1 0 15 0 a7.5 7.5 0 1 0 -15 0zM195.22 -34.81 a7.5 7.5 0 1 0 15 0 a7.5 7.5 0 1 0 -15 0zM195.22 40.19 a7.5 7.5 0 1 0 15 0 a7.5 7.5 0 1 0 -15 0zM130.27 77.69 a7.5 7.5 0 1 0 15 0 a7.5 7.5 0 1 0 -15 0zM65.31 40.19 a7.5 7.5 0 1 0 15 0 a7.5 7.5 0 1 0 -15 0zM65.31 -34.81 a7.5 7.5 0 1 0 15 0 a7.5 7.5 0 1 0 -15 0zM260.18 77.69 a7.5 7.5 0 1 0 15 0 a7.5 7.5 0 1 0 -15 0zM260.18 152.69 a7.5 7.5 0 1 0 15 0 a7.5 7.5 0 1 0 -15 0zM195.22 190.19 a7.5 7.5 0 1 0 15 0 a7.5 7.5 0 1 0 -15 0zM130.27 152.69 a7.5 7.5 0 1 0 15 0 a7.5 7.5 0 1 0 -15 0zM195.22 265.19 a7.5 7.5 0 1 0 15 0 a7.5 7.5 0 1 0 -15 0zM130.27 302.69 a7.5 7.5 0 1 0 15 0 a7.5 7.5 0 1 0 -15 0zM325.13 40.19 a7.5 7.5 0 1 0 15 0 a7.5 7.5 0 1 0 -15 0zM390.08 77.69 a7.5 7.5 0 1 0 15 0 a7.5 7.5 0 1 0 -15 0zM390.08 152.69 a7.5 7.5 0 1 0 15 0 a7.5 7.5 0 1 0 -15 0zM325.13 190.19 a7.5 7.5 0 1 0 15 0 a7.5 7.5 0 1 0 -15 0zM325.13 265.19 a7.5 7.5 0 1 0 15 0 a7.5 7.5 0 1 0 -15 0zM390.08 302.69 a7.5 7.5 0 1 0 15 0 a7.5 7.5 0 1 0 -15 0zM390.08 377.69 a7.5 7.5 0 1 0 15 0 a7.5 7.5 0 1 0 -15 0zM325.13 415.19 a7.5 7.5 0 1 0 15 0 a7.5 7.5 0 1 0 -15 0zM260.18 377.69 a7.5 7.5 0 1 0 15 0 a7.5 7.5 0 1 0 -15 0zM260.18 302.69 a7.5 7.5 0 1 0 15 0 a7.5 7.5 0 1 0 -15 0zM455.04 415.19 a7.5 7.5 0 1 0 15 0 a7.5 7.5 0 1 0 -15 0zM455.04 490.19 a7.5 7.5 0 1 0 15 0 a7.5 7.5 0 1 0 -15 0zM390.08 527.69 a7.5 7.5 0 1 0 15 0 a7.5 7.5 0 1 0 -15 0zM325.13 490.19 a7.5 7.5 0 1 0 15 0 a7.5 7.5 0 1 0 -15 0zM519.99 152.69 a7.5 7.5 0 1 0 15 0 a7.5 7.5 0 1 0 -15 0zM584.94 190.19 a7.5 7.5 0 1 0 15 0 a7.5 7.5 0 1 0 -15 0zM584.94 265.19 a7.5 7.5 0 1 0 15 0 a7.5 7.5 0 1 0 -15 0zM519.99 302.69 a7.5 7.5 0 1 0 15 0 a7.5 7.5 0 1 0 -15 0zM455.04 265.19 a7.5 7.5 0 1 0 15 0 a7.5 7.5 0 1 0 -15 0zM455.04 190.19 a7.5 7.5 0 1 0 15 0 a7.5 7.5 0 1 0 -15 0zM519.99 377.69 a7.5 7.5 0 1 0 15 0 a7.5 7.5 0 1 0 -15 0zM584.94 415.19 a7.5 7.5 0 1 0 15 0 a7.5 7.5 0 1 0 -15 0zM584.94 490.19 a7.5 7.5 0 1 0 15 0 a7.5 7.5 0 1 0 -15 0zM519.99 527.69 a7.5 7.5 0 1 0 15 0 a7.5 7.5 0 1 0 -15 0zM714.85 40.19 a7.5 7.5 0 1 0 15 0 a7.5 7.5 0 1 0 -15 0zM779.81 77.69 a7.5 7.5 0 1 0 15 0 a7.5 7.5 0 1 0 -15 0zM779.81 152.69 a7.5 7.5 0 1 0 15 0 a7.5 7.5 0 1 0 -15 0zM714.85 190.19 a7.5 7.5 0 1 0 15 0 a7.5 7.5 0 1 0 -15 0zM649.9 152.69 a7.5 7.5 0 1 0 15 0 a7.5 7.5 0 1 0 -15 0zM649.9 77.69 a7.5 7.5 0 1 0 15 0 a7.5 7.5 0 1 0 -15 0zM909.71 152.69 a7.5 7.5 0 1 0 15 0 a7.5 7.5 0 1 0 -15 0zM974.67 190.19 a7.5 7.5 0 1 0 15 0 a7.5 7.5 0 1 0 -15 0zM974.67 265.19 a7.5 7.5 0 1 0 15 0 a7.5 7.5 0 1 0 -15 0zM909.71 302.69 a7.5 7.5 0 1 0 15 0 a7.5 7.5 0 1 0 -15 0zM844.76 265.19 a7.5 7.5 0 1 0 15 0 a7.5 7.5 0 1 0 -15 0zM844.76 190.19 a7.5 7.5 0 1 0 15 0 a7.5 7.5 0 1 0 -15 0zM1104.57 40.19 a7.5 7.5 0 1 0 15 0 a7.5 7.5 0 1 0 -15 0zM1169.53 77.69 a7.5 7.5 0 1 0 15 0 a7.5 7.5 0 1 0 -15 0zM1169.53 152.69 a7.5 7.5 0 1 0 15 0 a7.5 7.5 0 1 0 -15 0zM1104.57 190.19 a7.5 7.5 0 1 0 15 0 a7.5 7.5 0 1 0 -15 0zM1039.62 152.69 a7.5 7.5 0 1 0 15 0 a7.5 7.5 0 1 0 -15 0zM1039.62 77.69 a7.5 7.5 0 1 0 15 0 a7.5 7.5 0 1 0 -15 0zM1104.57 265.19 a7.5 7.5 0 1 0 15 0 a7.5 7.5 0 1 0 -15 0zM1039.62 302.69 a7.5 7.5 0 1 0 15 0 a7.5 7.5 0 1 0 -15 0zM1039.62 377.69 a7.5 7.5 0 1 0 15 0 a7.5 7.5 0 1 0 -15 0zM1104.57 415.19 a7.5 7.5 0 1 0 15 0 a7.5 7.5 0 1 0 -15 0zM1104.57 490.19 a7.5 7.5 0 1 0 15 0 a7.5 7.5 0 1 0 -15 0zM1039.62 527.69 a7.5 7.5 0 1 0 15 0 a7.5 7.5 0 1 0 -15 0zM974.67 490.19 a7.5 7.5 0 1 0 15 0 a7.5 7.5 0 1 0 -15 0zM974.67 415.19 a7.5 7.5 0 1 0 15 0 a7.5 7.5 0 1 0 -15 0zM1234.48 40.19 a7.5 7.5 0 1 0 15 0 a7.5 7.5 0 1 0 -15 0zM1299.43 77.69 a7.5 7.5 0 1 0 15 0 a7.5 7.5 0 1 0 -15 0zM1299.43 152.69 a7.5 7.5 0 1 0 15 0 a7.5 7.5 0 1 0 -15 0zM1234.48 190.19 a7.5 7.5 0 1 0 15 0 a7.5 7.5 0 1 0 -15 0zM1234.48 265.19 a7.5 7.5 0 1 0 15 0 a7.5 7.5 0 1 0 -15 0zM1299.43 302.69 a7.5 7.5 0 1 0 15 0 a7.5 7.5 0 1 0 -15 0zM1299.43 377.69 a7.5 7.5 0 1 0 15 0 a7.5 7.5 0 1 0 -15 0zM1234.48 415.19 a7.5 7.5 0 1 0 15 0 a7.5 7.5 0 1 0 -15 0zM1169.53 377.69 a7.5 7.5 0 1 0 15 0 a7.5 7.5 0 1 0 -15 0zM1169.53 302.69 a7.5 7.5 0 1 0 15 0 a7.5 7.5 0 1 0 -15 0zM1234.48 490.19 a7.5 7.5 0 1 0 15 0 a7.5 7.5 0 1 0 -15 0zM1299.43 527.69 a7.5 7.5 0 1 0 15 0 a7.5 7.5 0 1 0 -15 0zM1299.43 602.69 a7.5 7.5 0 1 0 15 0 a7.5 7.5 0 1 0 -15 0zM1234.48 640.19 a7.5 7.5 0 1 0 15 0 a7.5 7.5 0 1 0 -15 0zM1169.53 602.69 a7.5 7.5 0 1 0 15 0 a7.5 7.5 0 1 0 -15 0zM1169.53 527.69 a7.5 7.5 0 1 0 15 0 a7.5 7.5 0 1 0 -15 0zM1299.43 -72.31 a7.5 7.5 0 1 0 15 0 a7.5 7.5 0 1 0 -15 0zM1364.39 -34.81 a7.5 7.5 0 1 0 15 0 a7.5 7.5 0 1 0 -15 0zM1364.39 40.19 a7.5 7.5 0 1 0 15 0 a7.5 7.5 0 1 0 -15 0zM1234.48 -34.81 a7.5 7.5 0 1 0 15 0 a7.5 7.5 0 1 0 -15 0zM1429.34 77.69 a7.5 7.5 0 1 0 15 0 a7.5 7.5 0 1 0 -15 0zM1429.34 152.69 a7.5 7.5 0 1 0 15 0 a7.5 7.5 0 1 0 -15 0zM1364.39 190.19 a7.5 7.5 0 1 0 15 0 a7.5 7.5 0 1 0 -15 0zM1494.3 490.19 a7.5 7.5 0 1 0 15 0 a7.5 7.5 0 1 0 -15 0zM1559.25 527.69 a7.5 7.5 0 1 0 15 0 a7.5 7.5 0 1 0 -15 0zM1559.25 602.69 a7.5 7.5 0 1 0 15 0 a7.5 7.5 0 1 0 -15 0zM1494.3 640.19 a7.5 7.5 0 1 0 15 0 a7.5 7.5 0 1 0 -15 0zM1429.34 602.69 a7.5 7.5 0 1 0 15 0 a7.5 7.5 0 1 0 -15 0zM1429.34 527.69 a7.5 7.5 0 1 0 15 0 a7.5 7.5 0 1 0 -15 0z" fill="#03305d"/><path d="M29.22 275.14L72.52 300.14L72.52 350.14L29.22 375.14L-14.08 350.14L-14.08 300.14zM115.83 275.14L159.13 300.14L159.13 350.14L115.83 375.14L72.52 350.14L72.52 300.14zM245.73 500.14L289.03 525.14L289.03 575.14L245.73 600.14L202.43 575.14L202.43 525.14zM332.34 50.14L375.64 75.14L375.64 125.14L332.34 150.14L289.03 125.14L289.03 75.14zM375.64 125.14L418.94 150.14L418.94 200.14L375.64 225.14L332.34 200.14L332.34 150.14zM722.06 275.14L765.36 300.14L765.36 350.14L722.06 375.14L678.76 350.14L678.76 300.14zM851.97 200.14L895.27 225.14L895.27 275.14L851.97 300.14L808.67 275.14L808.67 225.14zM981.88 425.14L1025.18 450.14L1025.18 500.14L981.88 525.14L938.57 500.14L938.57 450.14zM1284.99 200.14L1328.3 225.14L1328.3 275.14L1284.99 300.14L1241.69 275.14L1241.69 225.14z" stroke="rgba(6, 80, 156, 0.93)" stroke-width="2"/></g><defs><mask id="SvgjsMask1000"><rect width="1440" height="560" fill="#ffffff"/></mask></defs><script xmlns=""/></svg>